<?xml version="1.0" encoding="utf-8"?>
<!-- Generator: Adobe Illustrator 22.0.1, SVG Export Plug-In . SVG Version: 6.00 Build 0)  -->
<svg version="1.1" id="Layer_1" xmlns="http://www.w3.org/2000/svg" xmlns:xlink="http://www.w3.org/1999/xlink" x="0px" y="0px"
	 viewBox="0 0 431 149" style="enable-background:new 0 0 431 149;" xml:space="preserve">
<style type="text/css">
	.st0{fill:#9942B9;}
</style>
<g>
	<path class="st0" d="M204.5,57.4c-1.9-2.2-4.4-4-7.3-5.2c-2.9-1.3-6.3-1.9-10.1-1.9h-16.4v48.6h16.4c3.5,0,6.7-0.6,9.5-1.7
		c2.9-1.2,5.3-2.8,7.3-5c2-2.1,3.6-4.7,4.6-7.7c1.1-3,1.6-6.3,1.6-10c0-3.3-0.5-6.4-1.4-9.3C207.8,62.2,206.4,59.6,204.5,57.4z
		 M204,82.3c-0.8,2.4-1.9,4.5-3.5,6.2c-1.5,1.8-3.4,3.1-5.6,4.1c-2.2,1-4.9,1.5-7.8,1.5h-11.4V54.9h11.4c2.9,0,5.5,0.5,7.7,1.5
		s4.1,2.3,5.6,4s2.7,3.8,3.5,6.2c0.8,2.4,1.2,5.1,1.2,7.9C205.2,77.3,204.8,79.9,204,82.3z"/>
	<path class="st0" d="M148.7,74.7c0,2.4-0.3,4.9-0.7,7.3c-0.5,2.4-1.3,4.5-2.5,6.4c-1.1,1.8-2.7,3.3-4.7,4.4s-4.5,1.7-7.5,1.7
		s-5.5-0.6-7.4-1.6c-2-1.1-3.5-2.6-4.7-4.4s-2-3.9-2.5-6.3s-0.7-4.9-0.7-7.4V50.2h-5v24.4c0,3,0.3,6,1,8.9s1.8,5.6,3.4,7.9
		s3.7,4.2,6.3,5.6c2.6,1.4,5.9,2.1,9.8,2.1c3.7,0,6.9-0.7,9.5-2s4.7-3.2,6.3-5.4c1.6-2.3,2.8-4.9,3.5-7.9c0.7-2.9,1-6,1-9.2V50.2h-5
		v24.5H148.7z"/>
	<path class="st0" d="M375.6,57.7c-2-2.3-4.4-4.2-7.2-5.7c-2.8-1.4-6-2.2-9.3-2.2c-3.2,0-6.3,0.7-9.1,2c-2.8,1.3-5.2,3.2-7.2,5.5
		s-3.6,4.9-4.8,7.9c-1.2,2.9-1.7,6.1-1.7,9.3c0,3.1,0.6,6.1,1.6,9.1c1.1,2.9,2.7,5.6,4.7,7.9s4.4,4.1,7.2,5.5
		c2.8,1.4,5.9,2.1,9.3,2.1c3.2,0,6.3-0.7,9.1-2c2.8-1.3,5.2-3.2,7.2-5.4c2-2.2,3.6-4.9,4.8-7.8c1.2-2.9,1.7-6.1,1.7-9.4
		c0-3-0.6-6-1.6-8.9C379.1,62.7,377.6,60,375.6,57.7z M375.5,81.8c-0.8,2.4-2.1,4.5-3.6,6.4s-3.4,3.4-5.6,4.5
		c-2.1,1.1-4.6,1.7-7.3,1.7c-2.6,0-5-0.6-7.2-1.6c-2.2-1.1-4.1-2.6-5.7-4.4s-2.8-4-3.7-6.4c-0.9-2.4-1.3-4.9-1.3-7.5
		c0-2.5,0.4-4.9,1.3-7.3c0.8-2.4,2.1-4.5,3.6-6.4c1.6-1.9,3.5-3.4,5.6-4.5c2.2-1.1,4.6-1.7,7.3-1.7c2.5,0,4.9,0.5,7,1.6
		s4,2.6,5.6,4.4c1.6,1.8,2.8,4,3.7,6.4c0.9,2.4,1.3,4.9,1.3,7.5C376.8,77,376.3,79.4,375.5,81.8z"/>
	<polygon class="st0" points="241.1,50.1 220.4,98.9 225.8,98.9 243.1,57 260.4,98.9 265.7,98.9 245.1,50.1 	"/>
	<polygon class="st0" points="72.1,83.4 54.4,50 49.2,50 70.6,89.8 73.4,89.8 91.1,58.8 91.1,98.8 95.9,98.8 95.9,50 91,50 	"/>
	<polygon class="st0" points="316.1,91.1 283,50 279.7,50 279.7,98.8 284.3,98.8 284.3,58.6 316.9,99 320.7,99 320.7,50.2 
		316.1,50.2 	"/>
</g>
</svg>
