<?xml version="1.0" encoding="utf-8"?>
<!-- Generator: Adobe Illustrator 22.1.0, SVG Export Plug-In . SVG Version: 6.00 Build 0)  -->
<svg version="1.1" id="Layer_1" xmlns="http://www.w3.org/2000/svg" xmlns:xlink="http://www.w3.org/1999/xlink" x="0px" y="0px"
	 viewBox="0 0 113 29" style="enable-background:new 0 0 113 29;" xml:space="preserve">
<style type="text/css">
	.st0{fill:url(#SVGID_1_);}
</style>
<linearGradient id="SVGID_1_" gradientUnits="userSpaceOnUse" x1="23.274" y1="-17.276" x2="88.4408" y2="47.8909" gradientTransform="matrix(1 0 0 -1 0 28.707)">
	<stop  offset="0" style="stop-color:#662483"/>
	<stop  offset="1" style="stop-color:#AF1C63"/>
</linearGradient>
<path class="st0" d="M52.8,2.9c-0.6-0.7-1.5-1.4-2.5-1.8c-1-0.4-2.1-0.6-3.4-0.6h-5.5V17h5.5c1.2,0,2.3-0.2,3.2-0.6
	c1-0.4,1.8-0.9,2.5-1.7c0.7-0.7,1.2-1.6,1.6-2.6c0.4-1,0.5-2.1,0.5-3.4c0-1.1-0.2-2.2-0.5-3.1C53.9,4.5,53.4,3.7,52.8,2.9z
	 M52.6,11.3c-0.3,0.8-0.6,1.5-1.2,2.1c-0.5,0.6-1.2,1-1.9,1.4c-0.7,0.3-1.7,0.5-2.6,0.5H43V2.1h3.9c1,0,1.9,0.2,2.6,0.5
	s1.4,0.8,1.9,1.4s0.9,1.3,1.2,2.1C52.8,6.8,53,7.8,53,8.7C53,9.7,52.9,10.5,52.6,11.3z M33.9,8.8V0.5h1.7v8.3c0,1.1-0.1,2.1-0.3,3.1
	c-0.2,1-0.6,1.9-1.2,2.7c-0.5,0.7-1.3,1.4-2.1,1.8c-0.9,0.4-2,0.7-3.2,0.7c-1.3,0-2.4-0.2-3.3-0.7c-0.9-0.5-1.6-1.1-2.1-1.9
	c-0.5-0.8-0.9-1.7-1.1-2.7s-0.3-2-0.3-3V0.5h1.7v8.3c0,0.8,0.1,1.7,0.2,2.5s0.4,1.5,0.8,2.1c0.4,0.6,0.9,1.1,1.6,1.5
	c0.6,0.3,1.5,0.5,2.5,0.5s1.9-0.2,2.5-0.6c0.7-0.4,1.2-0.9,1.6-1.5c0.4-0.6,0.7-1.4,0.8-2.2C33.8,10.4,33.9,9.6,33.9,8.8L33.9,8.8
	L33.9,8.8z M110.6,3c-0.7-0.8-1.5-1.4-2.4-1.9c-0.9-0.5-2-0.7-3.1-0.7c-1.1,0-2.1,0.2-3.1,0.7c-0.9,0.4-1.8,1.1-2.4,1.9
	c-0.7,0.8-1.2,1.7-1.6,2.7c-0.4,1-0.6,2.1-0.6,3.1c0,1,0.2,2.1,0.5,3.1c0.4,1,0.9,1.9,1.6,2.7c0.7,0.8,1.5,1.4,2.4,1.9
	c0.9,0.5,2,0.7,3.1,0.7c1.1,0,2.1-0.2,3.1-0.7c0.9-0.4,1.8-1.1,2.4-1.8c0.7-0.7,1.2-1.7,1.6-2.6c0.4-1,0.6-2.1,0.6-3.2
	c0-1-0.2-2-0.5-3C111.8,4.7,111.3,3.8,110.6,3z M110.6,11.2c-0.3,0.8-0.7,1.5-1.2,2.2s-1.2,1.1-1.9,1.5c-0.7,0.4-1.6,0.6-2.5,0.6
	c-0.9,0-1.7-0.2-2.4-0.5c-0.7-0.4-1.4-0.9-1.9-1.5s-0.9-1.4-1.3-2.2C99.1,10.4,99,9.6,99,8.7c0-0.8,0.1-1.7,0.4-2.5
	c0.3-0.8,0.7-1.5,1.2-2.2c0.5-0.6,1.2-1.2,1.9-1.5c0.7-0.4,1.6-0.6,2.5-0.6c0.8,0,1.7,0.2,2.4,0.5c0.7,0.4,1.4,0.9,1.9,1.5
	s0.9,1.4,1.3,2.2c0.3,0.8,0.4,1.7,0.4,2.5C111,9.6,110.9,10.4,110.6,11.2z M66.5,0.5l7,16.5h-1.8L65.8,2.8L60,17h-1.8l7-16.5
	C65.1,0.5,66.5,0.5,66.5,0.5z M14.4,0.4H16v16.5h-1.6V3.4l-6,10.5H7.5L0.3,0.4H2l6,11.3L14.4,0.4z M90.5,0.5h1.6V17h-1.3l-11-13.7
	v13.6h-1.6V0.4h1.1l11.2,13.9V0.5z M39,22.9h0.6v5h3.2v0.6H39L39,22.9L39,22.9z M44.4,22.9h4.1v0.6H45v1.9h3.1V26H45v2h3.5v0.6h-4.1
	L44.4,22.9L44.4,22.9z M49.8,27.7l0.4-0.5c0.6,0.5,1.1,0.8,1.9,0.8c0.8,0,1.3-0.4,1.3-1v0c0-0.5-0.3-0.8-1.5-1.1
	c-1.3-0.3-1.9-0.7-1.9-1.6v0c0-0.9,0.8-1.5,1.8-1.5c0.8,0,1.4,0.2,2,0.7L53.5,24c-0.5-0.4-1-0.6-1.6-0.6c-0.7,0-1.2,0.4-1.2,0.9v0
	c0,0.5,0.3,0.8,1.5,1.1c1.3,0.3,1.8,0.7,1.8,1.6v0c0,1-0.8,1.6-1.9,1.6C51.2,28.6,50.5,28.3,49.8,27.7z M55.2,27.7l0.4-0.5
	c0.6,0.5,1.1,0.8,1.9,0.8c0.8,0,1.3-0.4,1.3-1v0c0-0.5-0.3-0.8-1.5-1.1c-1.3-0.3-1.9-0.7-1.9-1.6v0c0-0.9,0.8-1.5,1.8-1.5
	c0.8,0,1.4,0.2,2,0.7L58.9,24c-0.5-0.4-1-0.6-1.6-0.6c-0.7,0-1.2,0.4-1.2,0.9v0c0,0.5,0.3,0.8,1.5,1.1c1.3,0.3,1.8,0.7,1.8,1.6v0
	c0,1-0.8,1.6-1.9,1.6C56.6,28.6,55.9,28.3,55.2,27.7z M61,27.7h0.7v0.8H61V27.7z M65.8,22.9h1.9c1.8,0,3,1.2,3,2.8v0
	c0,1.6-1.2,2.8-3,2.8h-1.9V22.9z M67.7,28c1.4,0,2.3-1,2.3-2.2v0c0-1.2-0.9-2.2-2.3-2.2h-1.3V28C66.4,28,67.7,28,67.7,28z
	 M72.2,25.8L72.2,25.8c0-1.6,1.2-2.9,2.9-2.9c1.7,0,2.9,1.3,2.9,2.9v0c0,1.5-1.2,2.9-2.9,2.9C73.3,28.6,72.2,27.3,72.2,25.8z
	 M77.3,25.8L77.3,25.8c0-1.3-0.9-2.3-2.2-2.3s-2.2,1-2.2,2.3v0c0,1.3,0.9,2.3,2.2,2.3S77.3,27,77.3,25.8z M82.2,22.9h0.6l2,3.1
	l2-3.1h0.6v5.6h-0.6V24l-2,3h0l-2-3v4.5h-0.6L82.2,22.9L82.2,22.9z M89.3,25.8L89.3,25.8c0-1.6,1.2-2.9,2.9-2.9
	c1.7,0,2.9,1.3,2.9,2.9v0c0,1.5-1.2,2.9-2.9,2.9C90.4,28.6,89.3,27.3,89.3,25.8z M94.3,25.8L94.3,25.8c0-1.3-0.9-2.3-2.2-2.3
	s-2.2,1-2.2,2.3v0c0,1.3,0.9,2.3,2.2,2.3S94.3,27,94.3,25.8z M96.7,22.9h2.4c0.7,0,1.2,0.2,1.6,0.6c0.3,0.3,0.4,0.7,0.4,1.1v0
	c0,0.9-0.6,1.5-1.5,1.6l1.7,2.3h-0.8L99,26.4h-1.6v2.2h-0.6C96.7,28.5,96.7,22.9,96.7,22.9z M99.1,25.8c0.8,0,1.4-0.4,1.4-1.2v0
	c0-0.7-0.5-1.1-1.4-1.1h-1.7v2.3H99.1z M103,22.9h4.1v0.6h-3.4v1.9h3.1V26h-3.1v2h3.5v0.6H103V22.9z M108.6,27.7h0.7v0.8h-0.7V27.7z
	 M3.9,22.9h0.7l1.6,4.7l1.5-4.7h0.5l1.5,4.7l1.6-4.7H12l-2,5.7H9.5L8,24l-1.5,4.6H5.9L3.9,22.9z M19.3,27.7l0.4-0.5
	c0.6,0.5,1.1,0.8,1.9,0.8c0.8,0,1.3-0.4,1.3-1v0c0-0.5-0.3-0.8-1.5-1.1c-1.3-0.3-1.9-0.7-1.9-1.6v0c0-0.9,0.8-1.5,1.8-1.5
	c0.8,0,1.4,0.2,2,0.7L23,24c-0.5-0.4-1-0.6-1.6-0.6c-0.7,0-1.2,0.4-1.2,0.9v0c0,0.5,0.3,0.8,1.5,1.1c1.3,0.3,1.8,0.7,1.8,1.6v0
	c0,1-0.8,1.6-1.9,1.6C20.7,28.6,20,28.3,19.3,27.7z M26.6,23.5h-1.9v-0.6h4.4v0.6h-1.9v5h-0.6V23.5z M30.7,22.9h4.1v0.6h-3.4v1.9
	h3.1V26h-3.1v2h3.5v0.6h-4.1L30.7,22.9L30.7,22.9z M14.9,22.9h0.6l2.6,5.7h-0.7l-0.7-1.5h-3.1L13,28.6h-0.7L14.9,22.9z M16.5,26.5
	l-1.3-2.9l-1.3,2.9H16.5z"/>
</svg>
